<?xml version="1.0" standalone="no"?>
<!DOCTYPE svg PUBLIC "-//W3C//DTD SVG 20010904//EN"
 "http://www.w3.org/TR/2001/REC-SVG-20010904/DTD/svg10.dtd">
<svg version="1.0" xmlns="http://www.w3.org/2000/svg"
 width="700.000000pt" height="700.000000pt" viewBox="0 0 700.000000 700.000000"
 preserveAspectRatio="xMidYMid meet">
<metadata>
Created by potrace 1.14, written by Peter Selinger 2001-2017
</metadata>
<g transform="translate(0.000000,700.000000) scale(0.100000,-0.100000)"
fill="#000000" stroke="none">
<path d="M1645 6979 c-84 -31 -164 -125 -181 -212 -2 -12 -5 -95 -5 -184 -1
-90 -5 -163 -8 -164 -3 0 -98 -2 -211 -4 -200 -3 -243 -6 -325 -26 -22 -5 -50
-12 -63 -15 -91 -19 -289 -117 -383 -190 -225 -173 -370 -395 -440 -675 l-24
-94 0 -2185 c0 -1202 3 -2207 7 -2235 4 -27 12 -65 17 -83 5 -18 10 -36 10
-40 3 -27 38 -127 67 -190 71 -154 197 -314 339 -433 45 -37 174 -115 230
-139 28 -12 64 -28 80 -35 26 -12 65 -23 220 -62 17 -4 1139 -9 2495 -10 2635
-3 2523 -4 2690 44 213 61 433 207 572 378 63 78 59 72 94 130 84 138 134 274
162 440 4 22 7 1023 7 2225 0 1782 -2 2195 -13 2240 -8 30 -16 66 -18 79 -24
120 -138 345 -229 451 -37 43 -132 138 -166 166 -120 98 -294 184 -457 225
-107 28 -134 30 -332 34 -118 2 -220 4 -227 4 -8 1 -12 43 -12 154 0 174 -5
217 -32 269 -46 91 -139 148 -247 153 -134 7 -242 -68 -288 -198 -11 -30 -15
-89 -15 -209 -1 -116 -5 -168 -13 -170 -9 -3 -2877 -2 -2898 1 -4 1 -7 76 -7
169 0 180 -7 216 -56 290 -68 103 -218 147 -340 101z"/>
</g>
</svg>
